<svg xmlns="http://www.w3.org/2000/svg" >
    <defs>
    <symbol id="help" fill="none">
        <path fill-rule="evenodd" clip-rule="evenodd" d="M12 3C7.02944 3 3 7.02944 3 12C3 16.9706 7.02944 21 12 21C16.9706 21 21 16.9706 21 12C21 7.02944 16.9706 3 12 3ZM1 12C1 5.92487 5.92487 1 12 1C18.0751 1 23 5.92487 23 12C23 18.0751 18.0751 23 12 23C5.92487 23 1 18.0751 1 12Z" fill="currentColor"/>
        <path fill-rule="evenodd" clip-rule="evenodd" d="M12.2582 8.02431C11.7927 7.94446 11.314 8.03194 10.9068 8.27126C10.4996 8.51057 10.1902 8.88628 10.0335 9.33184C9.85018 9.85282 9.27926 10.1266 8.75827 9.94333C8.23728 9.76005 7.96351 9.18914 8.14678 8.66815C8.46025 7.77704 9.07898 7.02562 9.89339 6.54699C10.7078 6.06836 11.6653 5.8934 12.5964 6.0531C13.5274 6.2128 14.3719 6.69685 14.9802 7.41952C15.5884 8.14204 15.9214 9.05647 15.9201 10.0009C15.9197 11.5313 14.7851 12.5419 13.9748 13.082C13.5392 13.3725 13.1107 13.586 12.795 13.7263C12.6358 13.7971 12.5016 13.8508 12.405 13.8876C12.3566 13.906 12.3174 13.9203 12.2888 13.9305L12.2541 13.9427L12.243 13.9464L12.2391 13.9477L12.2376 13.9483C12.2373 13.9484 12.2363 13.9487 11.9201 13L12.2363 13.9487C11.7124 14.1233 11.1461 13.8402 10.9714 13.3162C10.7969 12.7926 11.0796 12.2267 11.6028 12.0517L11.6016 12.0521C11.6017 12.0521 11.6018 12.052 11.6028 12.0517L11.6188 12.0461C11.6342 12.0406 11.6594 12.0314 11.693 12.0186C11.7605 11.9929 11.8607 11.9529 11.9827 11.8987C12.2296 11.789 12.551 11.6275 12.8654 11.4179C13.555 10.9582 13.9201 10.4691 13.9201 9.99999L13.9201 9.9985C13.9208 9.52618 13.7543 9.06886 13.4502 8.70752C13.146 8.34618 12.7238 8.10416 12.2582 8.02431Z" fill="currentColor"/>
        <path fill-rule="evenodd" clip-rule="evenodd" d="M12 15C12.5523 15 13 15.4477 13 16V16.5C13 17.0523 12.5523 17.5 12 17.5C11.4477 17.5 11 17.0523 11 16.5V16C11 15.4477 11.4477 15 12 15Z" fill="currentColor"/>
    </symbol> 
    <symbol id="arrow" fill="none">
      <path fill-rule="evenodd" clip-rule="evenodd" d="M4.29289 8.29289C4.68342 7.90237 5.31658 7.90237 5.70711 8.29289L13 15.5858L20.2929 8.29289C20.6834 7.90237 21.3166 7.90237 21.7071 8.29289C22.0976 8.68342 22.0976 9.31658 21.7071 9.70711L13.7071 17.7071C13.3166 18.0976 12.6834 18.0976 12.2929 17.7071L4.29289 9.70711C3.90237 9.31658 3.90237 8.68342 4.29289 8.29289Z" fill="currentColor"/>
    </symbol>
    <symbol id="close" fill="none">
          <path fill-rule="evenodd" clip-rule="evenodd" d="M18.7071 5.29289C19.0976 5.68342 19.0976 6.31658 18.7071 6.70711L6.70711 18.7071C6.31658 19.0976 5.68342 19.0976 5.29289 18.7071C4.90237 18.3166 4.90237 17.6834 5.29289 17.2929L17.2929 5.29289C17.6834 4.90237 18.3166 4.90237 18.7071 5.29289Z" fill="currentColor"/>
          <path fill-rule="evenodd" clip-rule="evenodd" d="M5.29289 5.29289C5.68342 4.90237 6.31658 4.90237 6.70711 5.29289L18.7071 17.2929C19.0976 17.6834 19.0976 18.3166 18.7071 18.7071C18.3166 19.0976 17.6834 19.0976 17.2929 18.7071L5.29289 6.70711C4.90237 6.31658 4.90237 5.68342 5.29289 5.29289Z" fill="currentColor"/>
      </symbol>

    <symbol id="toggler">
      <rect x="0.5" y="0.5" width="51" height="27" rx="13.5" stroke="currentColor"/>
    </symbol>
    <symbol id="radio">
      <rect width="18" height="18" rx="9"/>
    </symbol>
    <symbol id="checkbox" fill="none">
        <path fill-rule="evenodd" clip-rule="evenodd" d="M17.7071 0.292893C18.0976 0.683417 18.0976 1.31658 17.7071 1.70711L6.70711 12.7071C6.31658 13.0976 5.68342 13.0976 5.29289 12.7071L0.292893 7.70711C-0.0976311 7.31658 -0.0976311 6.68342 0.292893 6.29289C0.683417 5.90237 1.31658 5.90237 1.70711 6.29289L6 10.5858L16.2929 0.292893C16.6834 -0.0976311 17.3166 -0.0976311 17.7071 0.292893Z" fill="currentColor"/>
    </symbol>
    <symbol id="icon-success" fill="none">
      <path d="M22 11.08V12C21.9988 14.1564 21.3005 16.2547 20.0093 17.9818C18.7182 19.709 16.9033 20.9725 14.8354 21.5839C12.7674 22.1953 10.5573 22.1219 8.53447 21.3746C6.51168 20.6273 4.78465 19.2461 3.61096 17.4371C2.43727 15.628 1.87979 13.4881 2.02168 11.3363C2.16356 9.18457 2.99721 7.13633 4.39828 5.49707C5.79935 3.85782 7.69279 2.71538 9.79619 2.24015C11.8996 1.76491 14.1003 1.98234 16.07 2.86" stroke="currentColor" stroke-width="2" stroke-linecap="round" stroke-linejoin="round" />
      <path d="M22 4L12 14.01L9 11.01" stroke="currentColor" stroke-width="2" stroke-linecap="round" stroke-linejoin="round" />
    </symbol>
    <symbol id="icon-error" fill="none">
        <path
            d="M10.29 3.86001L1.82 18C1.64537 18.3024 1.55296 18.6453 1.55199 18.9945C1.55101 19.3437 1.64149 19.6871 1.81442 19.9905C1.98736 20.2939 2.23672 20.5468 2.53771 20.7239C2.83869 20.901 3.1808 20.9962 3.53 21H20.47C20.8192 20.9962 21.1613 20.901 21.4623 20.7239C21.7633 20.5468 22.0126 20.2939 22.1856 19.9905C22.3585 19.6871 22.449 19.3437 22.448 18.9945C22.447 18.6453 22.3546 18.3024 22.18 18L13.71 3.86001C13.5317 3.56611 13.2807 3.32313 12.9812 3.15449C12.6817 2.98585 12.3437 2.89726 12 2.89726C11.6563 2.89726 11.3183 2.98585 11.0188 3.15449C10.7193 3.32313 10.4683 3.56611 10.29 3.86001V3.86001Z"
            stroke="currentColor" stroke-width="2" stroke-linecap="round" stroke-linejoin="round" />
        <path d="M12 9V13" stroke="currentColor" stroke-width="2" stroke-linecap="round"
            stroke-linejoin="round" />
        <path d="M12 16V16.5" stroke="currentColor" stroke-width="2" stroke-linecap="round"
            stroke-linejoin="round" />
    </symbol>
    <symbol id="logo" fill="none">
      <rect y="1" width="30" height="30" fill="currentColor"/>
      <rect x="38" width="32" height="32" rx="16" fill="currentColor"/>
      <path d="M78 0L110 32H78V0Z" fill="currentColor"/>
    </symbol>
    <symbol id="sun" fill="none">
<path fill-rule="evenodd" clip-rule="evenodd" d="M12 8C9.79086 8 8 9.79086 8 12C8 14.2091 9.79086 16 12 16C14.2091 16 16 14.2091 16 12C16 9.79086 14.2091 8 12 8ZM6 12C6 8.68629 8.68629 6 12 6C15.3137 6 18 8.68629 18 12C18 15.3137 15.3137 18 12 18C8.68629 18 6 15.3137 6 12Z" fill="currentColor"/>
<path fill-rule="evenodd" clip-rule="evenodd" d="M12 0C12.5523 0 13 0.447715 13 1V3C13 3.55228 12.5523 4 12 4C11.4477 4 11 3.55228 11 3V1C11 0.447715 11.4477 0 12 0Z" fill="currentColor"/>
<path fill-rule="evenodd" clip-rule="evenodd" d="M12 20C12.5523 20 13 20.4477 13 21V23C13 23.5523 12.5523 24 12 24C11.4477 24 11 23.5523 11 23V21C11 20.4477 11.4477 20 12 20Z" fill="currentColor"/>
<path fill-rule="evenodd" clip-rule="evenodd" d="M3.51286 3.51286C3.90339 3.12234 4.53655 3.12234 4.92708 3.51286L6.34708 4.93286C6.7376 5.32339 6.7376 5.95655 6.34708 6.34708C5.95655 6.7376 5.32339 6.7376 4.93286 6.34708L3.51286 4.92708C3.12234 4.53655 3.12234 3.90339 3.51286 3.51286Z" fill="currentColor"/>
<path fill-rule="evenodd" clip-rule="evenodd" d="M17.653 17.6529C18.0435 17.2624 18.6767 17.2624 19.0672 17.6529L20.4872 19.0729C20.8777 19.4634 20.8777 20.0966 20.4872 20.4871C20.0967 20.8776 19.4635 20.8776 19.073 20.4871L17.653 19.0671C17.2625 18.6766 17.2625 18.0434 17.653 17.6529Z" fill="currentColor"/>
<path fill-rule="evenodd" clip-rule="evenodd" d="M0 12C0 11.4477 0.447715 11 1 11H3C3.55228 11 4 11.4477 4 12C4 12.5523 3.55228 13 3 13H1C0.447715 13 0 12.5523 0 12Z" fill="currentColor"/>
<path fill-rule="evenodd" clip-rule="evenodd" d="M20 12C20 11.4477 20.4477 11 21 11H23C23.5523 11 24 11.4477 24 12C24 12.5523 23.5523 13 23 13H21C20.4477 13 20 12.5523 20 12Z" fill="currentColor"/>
<path fill-rule="evenodd" clip-rule="evenodd" d="M6.34708 17.6529C6.7376 18.0434 6.7376 18.6766 6.34708 19.0671L4.92708 20.4871C4.53655 20.8776 3.90339 20.8776 3.51286 20.4871C3.12234 20.0966 3.12234 19.4634 3.51286 19.0729L4.93286 17.6529C5.32339 17.2624 5.95655 17.2624 6.34708 17.6529Z" fill="currentColor"/>
<path fill-rule="evenodd" clip-rule="evenodd" d="M20.4872 3.51286C20.8777 3.90339 20.8777 4.53655 20.4872 4.92708L19.0672 6.34708C18.6767 6.7376 18.0435 6.7376 17.653 6.34708C17.2625 5.95655 17.2625 5.32339 17.653 4.93286L19.073 3.51286C19.4635 3.12234 20.0967 3.12234 20.4872 3.51286Z" fill="currentColor"/> 
</symbol>
<symbol id="moon" fill="none" >
<path fill-rule="evenodd" clip-rule="evenodd" d="M10.0811 0.509041C10.2746 0.852424 10.2484 1.27745 10.0141 1.59442C9.15985 2.75008 8.74879 4.17395 8.85566 5.60706C8.96254 7.04018 9.58023 8.38733 10.5964 9.40351C11.6126 10.4197 12.9597 11.0374 14.3929 11.1443C15.826 11.2511 17.2498 10.8401 18.4055 9.98585L18.9999 10.79L19.9957 10.882C19.8209 12.7734 19.1111 14.5758 17.9493 16.0785C16.7875 17.5811 15.2218 18.7218 13.4353 19.3671C11.6489 20.0124 9.71564 20.1355 7.86177 19.7221C6.0079 19.3088 4.3101 18.376 2.96702 17.0329C1.62394 15.6898 0.691147 13.992 0.277778 12.1381C-0.135591 10.2843 -0.0124347 8.35102 0.632836 6.56459C1.27811 4.77816 2.4188 3.21244 3.92145 2.05065C5.4241 0.88886 7.22654 0.179044 9.11788 0.00425972C9.51037 -0.0320113 9.88755 0.165658 10.0811 0.509041ZM17.5608 12.6836C16.5077 13.0646 15.3781 13.2233 14.2441 13.1387C12.3333 12.9962 10.5371 12.1726 9.1822 10.8177C7.82729 9.46282 7.0037 7.66661 6.8612 5.7558C6.77664 4.62183 6.93528 3.4922 7.31629 2.43908C6.53868 2.72043 5.8055 3.12204 5.14478 3.63289C3.94266 4.56232 3.0301 5.81489 2.51389 7.24404C1.99767 8.67318 1.89914 10.2198 2.22984 11.7029C2.56054 13.186 3.30677 14.5442 4.38123 15.6187C5.45569 16.6931 6.81394 17.4394 8.29703 17.7701C9.78013 18.1008 11.3267 18.0022 12.7559 17.486C14.185 16.9698 15.4376 16.0573 16.367 14.8551C16.8779 14.1944 17.2795 13.4612 17.5608 12.6836Z" fill="currentColor"/>
</symbol>
  </defs>
</svg>